<svg width="400" height="47" viewBox="0 0 400 47" fill="none" xmlns="http://www.w3.org/2000/svg">
<g clip-path="url(#clip0_3_25)">
<path d="M326.126 46.4794C324.781 45.6592 324.039 44.2466 321.536 37.7451C318.77 30.5587 317.351 27.4348 316.406 26.4483C315.608 25.6155 314.421 25.1742 312.394 24.9561C311.067 24.8135 310.947 24.7458 310.947 24.1438C310.947 23.4935 310.975 23.4855 313.836 23.3154C319.973 22.9507 322.954 20.6432 323.729 15.6582C324.108 13.2201 323.776 10.1335 322.876 7.72786C322.058 5.54275 319.852 3.33859 317.904 2.76007C315.953 2.18055 312.278 2.20347 311.078 2.80277C309.175 3.75346 309.24 3.05886 309.24 22.3611C309.24 39.2115 309.226 39.6544 308.694 41.0047C308.109 42.4889 306.314 45.1489 305.197 46.1876L304.512 46.8243L304.508 45.6623C304.506 45.0231 304.483 36.2891 304.456 26.2535C304.43 16.2178 304.322 7.37648 304.218 6.60593C303.881 4.12533 302.305 2.6268 299.208 1.84263C297.915 1.51518 297.433 1.29636 297.731 1.17168C297.974 1.06994 302.761 1.03511 308.369 1.0943C319.492 1.21181 319.914 1.26182 323.375 2.87256C327.703 4.88728 329.925 9.51128 328.951 14.4779C328.232 18.1418 326.246 20.5679 322.049 22.9078C320.807 23.6004 319.653 24.3334 319.484 24.5367C319.239 24.8325 319.491 25.318 320.744 26.9636C323.899 31.1093 326.483 35.7102 328.42 40.6364C329.534 43.4677 330.126 43.9648 332.091 43.7158C335.354 43.3022 335.701 43.5717 333.75 45.0071C331.156 46.915 327.879 47.5481 326.126 46.4797H326.126V46.4794Z" fill="#FEFEFE"/>
<path d="M369.192 46.7819C367.88 46.6554 368.175 46.3081 369.879 45.9728C371.83 45.5889 373.562 44.4483 374.391 43.0014L375.037 41.8734L375.111 21.411L375.186 0.948563L375.993 1.71123C376.923 2.59126 378.517 4.88829 379.256 6.41391C379.739 7.41317 379.771 8.3455 379.896 25.4569C380.036 44.7444 380.009 44.3879 381.373 44.9063C382.527 45.3453 388.54 45.5205 390.271 45.1656C394.306 44.3384 396.596 42.4312 398.668 38.1717C399.342 36.7845 399.933 35.6907 399.98 35.7409C400.086 35.8548 399.755 39.4747 399.326 42.8713C399.114 44.5545 398.84 45.6452 398.534 46.0232L398.066 46.6013L384.056 46.7327C376.35 46.805 369.662 46.827 369.192 46.7818V46.7819H369.192Z" fill="#FEFEFE"/>
<path d="M9.69096 46.4267C7.27657 45.9656 3.99604 44.189 0.633835 41.5216L0 41.0187L0.558744 40.7196C1.04827 40.4577 1.35437 40.6035 3.02774 41.8966C5.3401 43.6832 6.91888 44.509 9.08192 45.0632C13.3558 46.158 17.7174 44.2508 19.6469 40.4432C20.9527 37.8663 21.4429 34.1487 20.8087 31.6304C20.24 29.3722 17.5135 27.1215 11.1174 23.6301C4.578 20.0607 2.24386 18.1672 0.849222 15.3007C-0.369009 12.7969 -0.0968738 9.08145 1.54496 5.79964C2.66073 3.56925 4.19194 2.02901 6.35168 0.964691C7.85767 0.222518 8.31538 0.13066 11.0203 0.0271938C15.055 -0.127288 16.2764 0.332146 18.0501 2.6713C18.4609 3.21299 18.9546 3.65623 19.1473 3.65623C19.3401 3.65623 19.8749 3.18691 20.3359 2.61341C20.7968 2.03976 21.2753 1.63306 21.3989 1.70959C21.5226 1.78597 21.6239 2.65769 21.6239 3.64678C21.6239 4.63572 21.8039 7.06831 22.0239 9.05265C22.4042 12.4828 22.374 13.6374 21.9041 13.6374C21.7887 13.6374 21.4285 12.8987 21.1036 11.9958C19.5381 7.64583 16.6355 3.09505 14.6052 1.80746C13.5656 1.14826 13.1162 1.03004 11.6571 1.03219C7.508 1.03835 4.38096 4.14232 4.08618 8.54736C3.90519 11.2511 4.49231 12.835 6.36615 14.6984C7.61032 15.9357 8.67135 16.5738 13.3186 18.8799C19.5009 21.9478 22.3936 23.907 23.6643 25.8872C26.1207 29.7151 26.1308 34.2467 23.6938 39.1159C21.7391 43.0212 18.0751 45.7966 14.007 46.4532C12.0407 46.7707 11.474 46.7671 9.6911 46.4267H9.69096Z" fill="#FEFEFE"/>
<path d="M42.0988 46.4542C35.9889 45.5546 32.0652 41.274 30.5572 33.8623C30.0333 31.287 29.9879 30.1096 29.8735 16.0872C29.7977 6.7895 29.8456 1.01161 29.9995 0.9166C30.4242 0.654066 32.6281 3.42414 33.7179 5.59076L34.7572 7.65692L34.7618 19.906C34.7643 26.6429 34.881 33.2779 35.0211 34.6505C35.4994 39.3318 36.8507 42.1083 39.2455 43.3301C41.887 44.6778 46.3227 44.5946 49.4234 43.1394C51.3091 42.2543 53.8258 39.7234 54.7851 37.7476C56.2742 34.6803 56.3153 34.1353 56.2364 18.5205C56.1663 4.66358 56.1484 4.21905 55.6394 3.65672C54.8866 2.82513 53.7904 2.3078 51.7522 1.82214C50.7703 1.58827 49.943 1.28461 49.9136 1.14746C49.852 0.859995 62.0991 0.652633 63.1247 0.923765C63.6592 1.06506 63.4163 1.18945 61.8192 1.59214C59.5822 2.15618 57.9413 3.12134 57.7512 3.98489C57.6797 4.30962 57.5773 11.0171 57.5232 18.8906C57.4295 32.5936 57.4007 33.3008 56.8501 35.4319C55.2269 41.7151 51.5906 45.6734 46.7082 46.4719C44.9278 46.7631 44.178 46.7603 42.0987 46.454L42.0988 46.4542Z" fill="#FEFEFE"/>
<path d="M96.706 46.4044C96.8864 46.2239 97.9315 45.9368 99.0285 45.7667C100.142 45.594 101.209 45.2709 101.445 45.035C101.824 44.6563 101.875 42.6754 101.939 25.823C101.988 12.5652 101.923 6.71154 101.715 5.94013C101.293 4.37238 99.6056 2.77282 97.8124 2.2403C97.0288 2.00757 96.1799 1.81726 95.9257 1.81726C95.3853 1.81726 94.975 1.30509 95.4827 1.26425C95.6719 1.24906 101.323 1.20593 108.04 1.16853C121.141 1.09558 124.912 1.24061 125.512 1.84048C125.909 2.237 127.056 10.5345 126.885 11.771L126.791 12.4549L126.459 11.6669C124.742 7.58742 123.256 5.51495 121.145 4.25645C118.87 2.90122 116.932 2.53407 112.638 2.64499C108.599 2.74946 107.744 3.01844 107.24 4.343C107.099 4.71373 106.989 8.78143 106.989 13.6257C106.989 21.2462 107.038 22.2669 107.405 22.4078C107.633 22.4955 110.943 22.5673 114.759 22.5673H121.698V23.3553V24.1432H114.659C109.534 24.1432 107.534 24.2291 107.305 24.4584C107.072 24.6911 106.989 27.0996 106.989 33.6647C106.989 43.5964 107 43.6639 108.751 44.5248C109.981 45.1299 116.095 45.3752 118.338 44.9095C122.378 44.0709 124.768 41.9342 127.477 36.7408C129.566 32.7358 129.708 33.0434 128.534 39.034C127.472 44.4546 127.239 45.3165 126.633 46.0879L126.126 46.7322H111.252C99.3528 46.7322 96.4434 46.6665 96.706 46.4039V46.404V46.4044Z" fill="#FEFEFE"/>
<path d="M156.339 46.2244C154.894 45.4353 154.001 43.7573 151.368 36.883C148.05 28.2194 147.083 26.2823 145.702 25.5244C145.107 25.1982 144.044 24.8648 143.338 24.7834C141.021 24.516 140.832 24.4393 140.922 23.8062C140.998 23.2656 141.182 23.2128 143.516 23.0603C149.078 22.6969 152.141 20.9073 153.386 17.2933C154.028 15.4305 154.128 12.429 153.631 9.97316C152.657 5.17031 150.456 2.79174 146.316 2.07078C143.777 1.62854 141.299 2.05831 140.231 3.12607L139.428 3.92843L139.297 21.8502C139.166 39.7355 139.164 39.7746 138.576 41.0503C137.919 42.4737 135.983 45.2804 135.126 46.051L134.569 46.5513L134.564 45.1316C134.562 44.3509 134.532 35.2016 134.499 24.8001C134.431 3.84732 134.523 4.94389 132.696 3.20947C131.694 2.25793 130.486 1.6979 128.856 1.42949C128.242 1.32846 127.74 1.15535 127.74 1.04486C127.74 0.656362 132.158 0.555906 140.479 0.754812C149.491 0.970342 150.407 1.0953 153.436 2.52391C158.756 5.0336 160.744 11.5057 157.946 17.2152C157.004 19.1382 155.581 20.5103 152.942 22.0407C150.293 23.5766 149.282 24.2417 149.28 24.4486C149.279 24.5442 150.146 25.7852 151.208 27.2065C154.458 31.5595 156.719 35.6735 158.596 40.6488C159.145 42.1036 159.525 42.7029 160.145 43.0928C160.974 43.614 161.162 43.617 164.053 43.155C165.987 42.8459 164.79 44.3363 162.001 45.7093C159.859 46.7637 157.689 46.961 156.339 46.2239L156.339 46.224V46.2244Z" fill="#FEFEFE"/>
<path d="M211.71 0.77502C209.49 0.783618 207.327 0.864012 207.327 1.00488C207.327 1.135 207.947 1.38478 208.706 1.56305C211.987 2.33432 212.259 2.79361 211.406 6.07757C210.84 8.25723 200.393 45.0448 200.103 45.8791C200.027 46.0989 200.279 46.2074 200.867 46.2074H201.745L202.697 42.8585C205.25 33.8667 206.511 29.8634 206.941 29.3888C207.383 28.8998 207.763 28.8716 213.245 28.8716C218.724 28.8716 219.12 28.9004 219.762 29.4051C220.309 29.835 220.76 30.9518 222.044 34.9867C223.173 38.5343 223.932 40.449 224.589 41.4219C225.532 42.8182 227.591 44.742 229.522 46.0349C230.099 46.4215 230.614 46.6164 230.663 46.4699C230.784 46.1069 228.573 38.5779 225.418 28.6089C218.034 5.27865 216.681 1.14131 216.413 0.963895C216.203 0.823887 213.93 0.766422 211.71 0.77502H211.71ZM213.343 7.8587C213.609 7.8587 213.949 8.00645 214.098 8.18701C214.247 8.36757 215.46 12.3585 216.791 17.0518C219.015 24.8966 219.183 25.6385 218.843 26.2449L218.473 26.9017L213.433 26.9755L208.394 27.0411L207.959 26.3764C207.558 25.7649 207.553 25.5867 207.918 24.3325C212.132 9.85149 212.789 7.8587 213.343 7.8587H213.343H213.343Z" fill="#FEFEFE"/>
<path d="M275.007 46.458C269.137 45.4727 265.356 41.2949 263.738 34.008C263.252 31.8159 263.201 30.4227 263.088 16.1983C263.002 5.50134 263.049 0.766846 263.241 0.766846C263.745 0.766846 266.239 4.02415 267.061 5.75742L267.87 7.46475L268.028 21.5172C268.192 36.1683 268.276 37.2688 269.435 40.0516C270.032 41.4832 271.506 42.9164 273.078 43.5927C274.701 44.2907 277.871 44.5488 279.785 44.1385C284.449 43.1381 288.12 39.3331 289.162 34.4197C289.452 33.0532 289.531 29.6966 289.534 18.7593C289.538 5.24468 289.523 4.81276 289.006 3.96669C288.425 3.013 287.034 2.28086 284.939 1.82558C282.941 1.39151 282.778 1.31398 283.243 1.01949C283.725 0.714683 295.846 0.693331 296.324 0.996419C296.557 1.14359 296.073 1.36887 294.88 1.66837C293.893 1.91615 292.688 2.36455 292.202 2.66506C290.577 3.66905 290.59 3.53233 290.59 18.8652C290.59 33.8773 290.543 34.5089 289.146 38.22C286.744 44.6018 281.645 47.5728 275.006 46.4583L275.006 46.4582L275.007 46.458Z" fill="#FEFEFE"/>
<path d="M167.579 46.2732C167.515 46.1648 167.448 37.2073 167.43 26.3675C167.411 14.788 167.295 6.29926 167.148 5.78723C166.554 3.71605 164.877 2.40611 162.083 1.82931C161.252 1.65792 160.573 1.40785 160.573 1.27357C160.573 1.13185 162.662 1.02953 165.554 1.02953H170.535L171.398 1.79148C171.873 2.2105 172.67 3.24473 173.169 4.08979C173.669 4.93486 178.288 12.0089 183.434 19.81C188.579 27.6111 193.011 34.3742 193.281 34.8392C193.935 35.9666 194.391 36.1064 194.543 35.2264C194.793 33.7716 194.699 5.87895 194.441 4.91709C194.07 3.53406 193.093 2.96442 189.751 2.18212C188.151 1.80753 186.907 1.39495 186.987 1.26526C187.173 0.964036 202.861 0.952858 202.861 1.25394C202.861 1.37733 201.945 1.74146 200.826 2.06318C197.349 3.06187 197.16 3.1361 196.655 3.69355C196.186 4.2116 196.158 5.18607 196.032 25.0777C195.93 41.2399 195.827 45.9924 195.573 46.2467C195.311 46.5085 195.056 46.3924 194.304 45.6687C193.111 44.5205 190.981 41.6573 189.43 39.1158C183.921 30.0945 171.63 10.707 170.98 10.0156C170.481 9.4842 169.964 9.18082 169.639 9.22754C169.114 9.30263 169.109 9.47976 169.042 27.8868L168.974 46.4702H168.335C167.983 46.4702 167.643 46.3815 167.579 46.2733H167.579L167.579 46.2732Z" fill="#FEFEFE"/>
<path d="M240.624 24.8695C240.556 3.96799 240.535 3.16577 240.053 2.63296C239.597 2.12853 239.272 2.08009 236.35 2.08009C233.238 2.08009 233.117 2.10159 232.103 2.83559C230.425 4.05124 228.342 7.55117 227.554 10.4784C227.387 11.0959 227.121 11.9115 226.962 12.2908L226.672 12.9805L226.521 12.0612C226.368 11.1299 226.642 3.91052 226.906 1.91013C227.036 0.931937 227.136 0.8054 227.892 0.669977C229.069 0.459176 256.608 0.509906 257.871 0.725006C258.683 0.863438 258.941 1.04343 259.082 1.57022C259.379 2.68011 259.495 12.8364 259.211 12.9123C259.072 12.9499 258.58 11.7258 258.118 10.1921C256.958 6.34125 256.309 4.93672 255.181 3.836C253.816 2.50413 252.407 2.07995 249.349 2.07995C245.248 2.07995 245.692 -0.20074 245.612 21.2544L245.544 39.5093L244.942 40.8051C244.246 42.3029 242.365 45.0002 241.375 45.9203L240.694 46.5529L240.624 24.8692V24.8694L240.624 24.8695Z" fill="#FEFEFE"/>
<path d="M71.0046 25.8427C71.0046 3.49651 71.0784 4.54636 69.3943 2.94708C68.3477 1.9534 67.1439 1.41272 65.3965 1.15205C64.6958 1.04758 64.2597 0.877189 64.4274 0.773436C64.8943 0.484821 82.1643 0.465619 84.4004 0.751368C90.3063 1.50572 94.0965 4.1153 95.431 8.34607C96.7424 12.5039 95.5264 17.0487 92.318 19.9811C89.3963 22.6514 85.0419 24.2211 80.4616 24.2549C77.7803 24.2746 77.7038 24.259 77.6739 23.6842C77.6541 23.306 77.7955 23.0901 78.0668 23.0844C80.3632 23.0364 84.0518 22.4945 85.326 22.0176C87.4105 21.2377 89.3881 19.2749 90.0733 17.3062C90.8018 15.2125 90.7555 10.7507 89.9791 8.23702C88.5972 3.76277 85.4314 1.61478 80.5934 1.86886C77.9989 2.00499 76.8047 2.58409 76.3385 3.93187C76.1085 4.59665 76.0211 9.46485 76.0102 22.2043L75.9955 39.5704L75.0594 41.4415C74.1831 43.1933 71.7681 46.2075 71.2412 46.2075C71.1033 46.2075 71.0049 37.7299 71.0049 25.8427V25.8425L71.0046 25.8427Z" fill="#FEFEFE"/>
<path d="M347.244 0.775017C345.024 0.783615 342.861 0.864009 342.861 1.00488C342.861 1.135 343.481 1.38478 344.24 1.56305C347.521 2.33431 347.793 2.7936 346.94 6.07757C346.374 8.25723 335.927 45.0448 335.637 45.8791C335.561 46.0989 335.813 46.2074 336.401 46.2074H337.279L338.231 42.8585C340.783 33.8667 342.045 29.8634 342.475 29.3888C342.917 28.8998 343.297 28.8716 348.779 28.8716C354.258 28.8716 354.654 28.9004 355.296 29.4051C355.842 29.835 356.294 30.9518 357.578 34.9867C358.707 38.5343 359.465 40.449 360.123 41.4219C361.066 42.8182 363.125 44.742 365.056 46.0348C365.633 46.4215 366.148 46.6164 366.197 46.4699C366.318 46.1069 364.107 38.5779 360.952 28.6089C353.568 5.27836 352.215 1.14102 351.947 0.963605C351.736 0.823597 349.464 0.766132 347.244 0.77473L347.244 0.775017H347.244ZM348.877 7.8587C349.143 7.8587 349.483 8.00644 349.632 8.18701C349.781 8.36757 350.994 12.3585 352.324 17.0518C354.549 24.8966 354.717 25.6385 354.377 26.2449L354.007 26.9017L348.967 26.9755L343.927 27.0411L343.492 26.3764C343.092 25.7649 343.086 25.5867 343.451 24.3325C347.666 9.85149 348.323 7.8587 348.877 7.8587H348.877H348.877Z" fill="#FEFEFE"/>
</g>
<defs>
<clipPath id="clip0_3_25">
<rect width="400" height="46.9967" fill="white"/>
</clipPath>
</defs>
</svg>
