<svg width="450" height="512" viewBox="0 0 450 512" fill="none" xmlns="http://www.w3.org/2000/svg">
<path d="M445.938 416.185L344.243 261.907C369.372 233.126 383.099 196.669 383.099 158.098C383.099 115.869 366.654 76.166 336.794 46.305C306.932 16.445 267.149 0 224.92 0C182.691 0 143.068 16.445 113.207 46.305C83.347 76.166 66.902 115.868 66.902 158.098C66.902 196.669 80.628 233.126 105.758 261.907L4.06201 416.185C-1.12499 424.054 -0.526993 433.599 5.40001 437.506L115.89 510.338C121.816 514.244 130.825 511.031 136.012 503.163L225 368.163L313.989 503.162C319.176 511.031 328.185 514.243 334.111 510.337L444.601 437.505C450.526 433.599 451.125 424.054 445.938 416.185ZM102.346 464.971C99.963 468.587 95.099 469.587 91.483 467.203L54.663 442.932C51.048 440.548 50.048 435.685 52.432 432.069L143.623 293.726C157.366 302.012 172.26 308.104 187.875 311.841L195.58 323.531L102.346 464.971ZM224.999 199.825L182.914 222.589C180.69 223.791 177.973 223.612 175.927 222.125C173.881 220.639 172.871 218.11 173.327 215.624L181.97 168.564L147.316 135.572C145.487 133.828 144.818 131.188 145.6 128.784C146.381 126.379 148.474 124.637 150.98 124.303L198.408 117.981L219.076 74.828C220.168 72.547 222.472 71.096 225 71.096C227.528 71.096 229.833 72.547 230.924 74.828L251.592 117.981L299.02 124.303C301.527 124.637 303.619 126.379 304.4 128.784C305.181 131.189 304.513 133.829 302.681 135.572L268.027 168.564L276.67 215.624C277.127 218.111 276.116 220.639 274.07 222.125C272.024 223.611 269.307 223.792 267.083 222.589L224.999 199.825ZM395.337 442.932L358.517 467.203C354.902 469.586 350.038 468.587 347.654 464.971L248.447 314.469C269.038 311.418 288.658 304.369 306.365 293.711L397.568 432.069C399.951 435.684 398.952 440.549 395.337 442.932Z" fill="white"/>
</svg>
